<svg xmlns="http://www.w3.org/2000/svg" width="694" height="203" viewBox="0 0 694 203">
  <g fill="none" fill-rule="evenodd">
    <path fill="#B0672C" d="M211.9789 139.9915L194.6789 139.9915 147.2499 139.9915C153.6699 138.8795 158.6899 131.3465 158.6899 124.6435L158.6899 116.8375 158.6899 42.3415C158.6899 28.1155 173.1989 24.4855 173.1989 14.1625 173.1989 8.0255 165.1049 2.4445 154.2259 2.4445 142.5079 2.4445 132.1849 6.6295 128.5599 8.3085 154.5039-4.2495 200.5389-7.8785 200.5389 38.4385L200.5389 116.8375 200.5389 124.6435C200.5389 131.3465 205.5589 138.8795 211.9789 139.9915M138.6049 139.9915L121.3049 139.9915 73.8749 139.9915C80.2909 138.8795 85.3159 131.3465 85.3159 124.6435L85.3159 116.8375 85.3159 42.3415C85.3159 28.1155 99.8199 24.4855 99.8199 14.1625 99.8199 8.0255 92.0089 2.4445 80.8519 2.4445 69.1329 2.4445 58.8099 6.6295 55.1809 8.3085 81.1299-4.2495 127.1639-7.8785 127.1639 38.4385L127.1639 116.8375 127.1639 124.6435C127.1639 131.3465 132.1849 138.8795 138.6049 139.9915M65.2259 139.9915L.5009 139.9915C6.9169 138.8795 11.9369 131.3465 11.9369 124.6435L11.9369 105.9585 11.9369 58.5285 11.9369 44.2925 11.9369 28.3985 11.9369 25.3245C11.9369 18.3485 6.9169 11.0985.5009 9.9765L48.2089 3.0005 49.0429 3.0005C51.8339 3.0005 53.7849 4.9615 53.7849 7.7525L53.7849 43.1805 53.7849 58.5285 53.7849 105.9585 53.7849 124.6435C53.7849 131.3465 58.8099 138.8795 65.2259 139.9915M357.6732 134.4104L309.9602 141.3864 309.1262 141.3864C306.6142 141.3864 304.3842 139.1524 304.3842 136.6444L304.3842 60.7534 304.3842 44.2924 304.3842 28.3984 304.3842 25.3244C304.3842 18.3484 299.3592 11.0984 292.9442 9.9764L340.6522 3.0004 341.4912 3.0004C344.2762 3.0004 346.2332 4.9614 346.2332 7.7524L346.2332 43.1804 346.2332 59.3584 346.2332 115.9984 346.2332 119.0624C346.2332 125.7654 351.2532 133.2984 357.6732 134.4104M277.3222 139.1524C283.7382 139.1524 289.3192 138.3134 294.0612 136.9184 267.8332 145.8454 231.0052 144.4504 231.0052 103.1674L231.0052 53.5034 231.0052 44.2924 231.0052 28.3984 231.0052 25.3244C231.0052 18.3484 225.9852 11.0984 219.5692 9.9764L267.2772 3.0004 268.1122 3.0004C270.9022 3.0004 272.8542 4.9614 272.8542 7.7524L272.8542 43.1804 272.8542 53.5034 272.8542 99.2554C272.8542 113.4914 258.3502 117.1104 258.3502 127.4344 258.3502 133.2984 266.4382 139.1524 277.3222 139.1524M555.183 139.9915L537.888 139.9915 490.459 139.9915C496.874 138.8795 501.899 131.3465 501.899 124.6435L501.899 116.8375 501.899 42.3415C501.899 28.1155 516.403 24.4855 516.403 14.1625 516.403 8.0255 508.592 2.4445 497.435 2.4445 485.717 2.4445 475.393 6.6295 471.764 8.3085 497.713-4.2495 543.748-7.8785 543.748 38.4385L543.748 116.8375 543.748 124.6435C543.748 131.3465 548.768 138.8795 555.183 139.9915L555.183 139.9915zM470.373 58.5285L470.373 105.9585 470.373 124.6435C470.373 131.3465 475.393 138.8795 481.809 139.9915L417.084 139.9915C423.5 138.8795 428.52 131.3465 428.52 124.6435L428.52 105.9585 428.52 58.5285 428.52 44.2925 428.52 28.3985 428.52 25.3245C428.52 18.3485 423.5 11.0985 417.084 9.9765L464.792 3.0005 465.626 3.0005C468.417 3.0005 470.373 4.9615 470.373 7.7525L470.373 43.1805 470.373 58.5285zM576.2093 40.107C576.2093 21.422 601.0413 3.566 623.0833 1.049 613.0383 2.444 607.4613 7.469 607.4613 13.323 607.4613 17.236 609.9693 21.422 613.3163 25.325 617.2233 28.955 619.4583 34.253 619.4583 40.107 619.4583 52.108 609.6913 61.592 597.6943 61.592 585.6983 61.592 576.2093 52.108 576.2093 40.107M693.3883 134.41L645.4023 141.387 644.8463 141.387C642.0553 141.387 639.8213 139.152 639.8213 136.362L639.8213 133.854 639.8213 92.562 639.8213 75.818 639.8213 57.133 639.8213 55.738C630.8933 60.197 611.6423 67.456 609.6913 93.401 608.5743 106.788 612.2033 117.111 618.0633 123.531 623.9223 129.951 633.4063 132.742 639.2653 129.951 632.5673 134.693 621.1313 141.387 606.0663 141.387 588.4883 141.387 572.8623 131.347 568.6763 115.716 564.2133 99.821 573.1403 83.351 588.4883 73.867 612.4813 58.802 676.6503 49.318 678.0453 27.559 678.3233 23.09 676.0943 17.792 672.4643 13.606 677.4893 18.348 680.5573 23.93 681.6703 30.35 681.9533 31.745 681.9533 33.414 681.9533 34.809L681.9533 39.551 681.9533 80.004 681.9533 89.771 681.9533 115.999 681.9533 119.062C681.9533 125.766 686.9733 133.298 693.3883 134.41M405.835 77.1516C405.835 87.3806 397.542 95.6736 387.313 95.6736 377.084 95.6736 368.791 87.3806 368.791 77.1516 368.791 66.9226 377.084 58.6296 387.313 58.6296 397.542 58.6296 405.835 66.9226 405.835 77.1516"/>
    <path fill="#636866" d="M175.2482 184.6721C175.2482 187.8701 173.6952 189.2351 170.0542 189.2351L167.8862 189.2351 167.8862 180.2001C168.1942 180.1961 168.5702 180.1891 168.9302 180.1811 169.3912 180.1711 169.8252 180.1621 170.0542 180.1621 173.3552 180.1621 175.2482 181.8061 175.2482 184.6721L175.2482 184.6721zM180.2502 199.2501C178.6192 197.0351 175.9442 193.4521 174.3482 191.3321 177.7282 190.4311 179.4402 188.1931 179.4402 184.6721 179.4402 180.0721 176.4102 177.6411 170.6782 177.6411L161.2192 177.6411 161.3832 179.6671 163.8952 180.0791C163.8972 181.4191 163.9072 186.1481 163.9172 190.6151 163.9252 194.4811 163.9332 198.1511 163.9352 199.2621L161.7722 199.6971 161.5582 201.7151 172.1342 201.7151 171.7622 199.6701 167.9182 199.2341 167.8872 191.7571 169.7942 191.7571C171.6632 194.2211 177.0042 201.4871 177.0592 201.5621L177.1712 201.7151 182.7862 201.7591 182.4162 199.6191 180.2502 199.2501zM212.3829 180.2034L213.1029 183.3604 215.2649 183.7484 215.5509 177.6824 196.9879 177.6404 197.2009 179.6894 199.6729 180.1414C199.6729 181.9164 199.6749 189.4134 199.7059 194.7914L199.7059 199.1854 197.2009 199.6244 196.9869 201.6474 215.5509 201.6474 215.2649 195.5634 213.1029 195.9714 212.3829 199.1264 203.6949 199.1264 203.6649 190.6164 210.0019 190.6164 210.6989 192.9384 212.6749 192.9384 212.6749 185.7204 210.6979 185.7204 209.9999 188.0824 203.6629 188.0824 203.6629 180.2034 212.3829 180.2034zM523.399 195.9709L522.68 199.1259 513.992 199.1259 513.961 190.6169 520.298 190.6169 520.996 192.9389 522.971 192.9389 522.971 185.7199 520.994 185.7199 520.296 188.0819 513.96 188.0819 513.96 180.2029 522.68 180.2029 523.399 183.3609 525.561 183.7479 525.848 177.6829 507.284 177.6399 507.498 179.6899 509.969 180.1409C509.969 181.9159 509.971 189.4129 510.003 194.7909L510.003 199.1859 507.498 199.6239 507.283 201.6479 525.848 201.6479 525.561 195.5639 523.399 195.9709zM238.8458 186.8108C236.3568 185.4698 234.0058 184.2038 234.0058 182.6868 234.0058 181.4988 234.4008 179.9208 237.8108 179.9208 239.4578 179.9208 240.7628 180.1388 241.6938 180.5708L242.6268 184.5238 245.0258 184.5238 245.3338 178.2128 245.0228 178.1468C244.9848 178.1378 241.1868 177.3318 237.8108 177.3318 233.0848 177.3318 230.2628 179.8258 230.2628 184.0008 230.2628 187.0318 233.4918 188.7518 236.6148 190.4168 239.4518 191.9298 242.1328 193.3598 242.1328 195.5558 242.1328 198.2188 240.5618 199.5698 237.4618 199.5698 235.9918 199.5698 234.6828 199.3518 233.7478 198.9548L232.7838 194.6708 230.3888 194.6708 230.0948 200.6728 229.7608 201.0778 230.3408 201.2208C230.5088 201.2618 234.4898 202.2388 237.2878 202.2388 241.7028 202.2388 246.1578 199.8288 246.1578 194.4428 246.1578 190.7488 242.2728 188.6568 238.8458 186.8108"/>
    <polygon fill="#636866" points="259.682 177.682 259.961 183.748 262.123 183.361 262.844 180.162 267.771 180.162 267.771 199.186 265.267 199.624 265.052 201.648 274.59 201.648 274.211 199.62 271.763 199.187 271.763 180.162 276.69 180.162 277.411 183.361 279.573 183.748 279.83 178.154 280.245 177.641 260.075 177.641"/>
    <path fill="#636866" d="M305.3942 190.2161L299.5032 190.2161 302.2982 182.0471 305.3942 190.2161zM313.0692 199.2361L304.7152 177.3561 300.9602 177.9631 293.4322 199.3211 291.4632 199.8191 291.2442 201.7151 298.9222 201.7151 298.6482 199.8031 296.4032 199.3521C296.7292 198.3781 297.6132 195.7511 298.6552 192.7371L306.3432 192.7371C307.4842 195.7221 308.4222 198.2491 308.7832 199.2741L306.5612 199.6581 306.1402 201.6751 315.6692 201.6751 315.5152 199.6651 313.0692 199.2361zM345.2789 179.553L347.8479 180.069C347.8489 182.239 347.8579 184.061 347.8659 185.848 347.8739 187.644 347.8819 189.405 347.8819 191.449 347.8819 196.898 345.8429 199.435 341.4659 199.435 336.2229 199.435 335.4399 194.499 335.4399 191.558L335.4729 180.142 337.9239 179.696 338.3449 177.682 328.8069 177.682 328.9709 179.69 331.4879 180.142 331.4559 191.382C331.4559 198.441 334.7129 202.171 340.8759 202.171 347.7749 202.171 350.7189 198.925 350.7189 191.316 350.7189 190.959 350.7179 182.851 350.6889 179.985L352.4649 179.538 352.6839 177.641 345.0069 177.641 345.2789 179.553zM380.9889 184.6721C380.9889 187.8701 379.4359 189.2351 375.7949 189.2351L373.6269 189.2351 373.6269 180.2001C373.9349 180.1961 374.3109 180.1891 374.6709 180.1811 375.1319 180.1711 375.5659 180.1621 375.7949 180.1621 379.0959 180.1621 380.9889 181.8061 380.9889 184.6721L380.9889 184.6721zM385.9909 199.2501C384.3599 197.0351 381.6849 193.4521 380.0889 191.3321 383.4689 190.4311 385.1809 188.1931 385.1809 184.6721 385.1809 180.0721 382.1509 177.6411 376.4189 177.6411L366.9599 177.6411 367.1239 179.6671 369.6359 180.0791C369.6379 181.4191 369.6479 186.1481 369.6569 190.6151 369.6659 194.4811 369.6739 198.1511 369.6759 199.2621L367.5129 199.6971 367.2989 201.7151 377.8739 201.7151 377.5029 199.6701 373.6579 199.2341 373.6279 191.7571 375.5349 191.7571C377.4039 194.2211 382.7449 201.4871 382.7999 201.5621L382.9119 201.7151 388.5269 201.7591 388.1559 199.6191 385.9909 199.2501zM414.5314 190.2161L408.6414 190.2161 411.4424 182.0471 414.5314 190.2161zM422.2064 199.2361L413.8534 177.3561 410.0974 177.9631 402.5694 199.3211 400.6004 199.8191 400.3814 201.7151 408.0584 201.7151 407.7864 199.8031 405.5404 199.3521C405.8664 198.3781 406.7494 195.7511 407.7864 192.7371L415.4804 192.7371C416.6224 195.7261 417.5604 198.2511 417.9204 199.2741L415.6984 199.6581 415.2774 201.6751 424.8064 201.6751 424.6524 199.6651 422.2064 199.2361zM453.4337 179.7668L455.6637 180.2038 455.6717 183.4128C455.6797 187.1178 455.6937 192.8428 455.6967 196.2718 449.2597 185.6878 445.6767 179.5158 445.0407 177.9178L444.9467 177.6818 437.6927 177.6818 437.9077 179.6858 440.2047 180.1368C440.2057 181.3998 440.2157 185.7458 440.2247 190.0068 440.2337 194.0438 440.2427 198.0038 440.2437 199.1898L437.9067 199.6268 437.6927 201.6478 445.6247 201.6478 445.2567 199.6248 443.0137 199.1918 442.9767 182.5638C446.0997 187.8518 453.8607 200.8528 454.3697 201.7038L454.3717 201.7088C454.3777 201.7228 454.3857 201.7358 454.3947 201.7468 454.4807 201.8528 454.7097 201.8938 455.0157 201.8938 456.1127 201.8938 458.2007 201.3608 458.2277 201.3528L458.7577 201.1588 458.4667 200.8048 458.4997 180.2038 460.7427 179.7728 461.1207 177.7478 453.2197 177.7478 453.4337 179.7668z"/>
    <polygon fill="#636866" points="474.159 177.682 474.438 183.748 476.6 183.361 477.321 180.162 482.249 180.162 482.249 199.186 479.744 199.624 479.53 201.648 489.067 201.648 488.688 199.62 486.24 199.187 486.24 180.162 491.168 180.162 491.888 183.361 494.05 183.748 494.308 178.156 494.73 177.641 474.552 177.641"/>
  </g>
</svg>
